# xmcd CD database file
#
# Track frame offsets:
#	150
#	18590
#	34075
#	47905
#	59207
#	80882
#	95332
#	113557
#	123652
#	140242
#	156677
#	169395
#
# Disc length: 2402 seconds
#
# Revision: 0
# Processed by: cddbd v1.5.2PL0 Copyright (c) Steve Scherf et al.
# Submitted via: CDex 1.70beta3
#
DISCID=ba09600c
DTITLE=The Bill Le Sage - Ronnie Ross Quartet - The Bill Le Sage - Ronnie Ross Quartet
DYEAR=1963
DGENRE=Jazz
TTITLE0=If You Were The Only Girl In The World
TTITLE1=Falling In Love With Love
TTITLE2=Close To You
TTITLE3=Autumn In Cuba
TTITLE4=Satin Doll
TTITLE5=Country Squire
TTITLE6=Benny's South Street
TTITLE7=The Cheaters
TTITLE8=C Jam Blues
TTITLE9=New Orleans
TTITLE10=Spain
TTITLE11=Pitiful Pearl
EXTD=YEAR: 1963
EXTT0=
EXTT1=
EXTT2=
EXTT3=
EXTT4=
EXTT5=
EXTT6=
EXTT7=
EXTT8=
EXTT9=
EXTT10=
EXTT11=
PLAYORDER=
